<svg data-v-423bf9ae="" xmlns="http://www.w3.org/2000/svg" viewBox="0 0 440 90" class="iconLeft"><!----><!----><!----><g data-v-423bf9ae="" id="e782f75e-6515-42fa-a217-e419da5f991a" fill="#f1416c" transform="matrix(5.6980053264473165,0,0,5.6980053264473165,108.00570012641103,-7.735042022120943)"><path d="M8.05 5.74L8.05 4.58L0.35 4.58L0.35 5.74L3.53 5.74L3.53 14.35L4.87 14.35L4.87 5.74ZM9.46 14.35L15.53 14.35L15.53 13.27L12.80 13.27L12.80 10.33C12.80 9.27 13.50 8.40 14.84 8.40L16.24 8.40L16.24 7.13L15.29 7.13C13.79 7.13 13.15 8.02 12.88 8.99L12.80 8.99L12.80 7.13L9.46 7.13L9.46 8.20L11.49 8.20L11.49 13.27L9.46 13.27ZM24.56 14.35L24.56 13.27L23.59 13.27L23.59 9.45C23.59 7.87 22.50 6.96 20.75 6.96C19.25 6.96 18.30 7.64 17.92 8.40L18.75 9.06C19.12 8.41 19.70 8.02 20.65 8.02C21.71 8.02 22.29 8.54 22.29 9.56L22.29 10.21L20.82 10.21C18.66 10.21 17.68 10.96 17.68 12.33C17.68 13.69 18.65 14.52 20.13 14.52C21.29 14.52 22.01 14 22.32 13.16L22.39 13.16C22.47 13.86 22.85 14.35 23.70 14.35ZM20.44 13.50C19.57 13.50 19.03 13.13 19.03 12.43L19.03 12.14C19.03 11.47 19.60 11.10 20.83 11.10L22.29 11.10L22.29 12.22C22.29 12.95 21.52 13.50 20.44 13.50ZM29.67 14.52C31.14 14.52 32.06 13.80 32.49 12.82L31.56 12.21C31.19 12.95 30.60 13.43 29.68 13.43C28.39 13.43 27.69 12.56 27.69 11.35L27.69 10.12C27.69 8.92 28.41 8.05 29.65 8.05C30.52 8.05 31.09 8.48 31.36 9.20L32.38 8.64C31.96 7.64 31.08 6.96 29.65 6.96C27.57 6.96 26.31 8.44 26.31 10.74C26.31 13.03 27.55 14.52 29.67 14.52ZM34.96 14.35L36.26 14.35L36.26 11.76L37.41 10.71L40.08 14.35L41.68 14.35L38.37 9.95L41.33 7.13L39.77 7.13L37.53 9.23L36.33 10.40L36.26 10.40L36.26 3.99L34.96 3.99ZM46.34 14.52C47.80 14.52 48.82 13.85 49.28 12.92L48.40 12.24C48.01 12.98 47.29 13.43 46.35 13.43C45.04 13.43 44.24 12.56 44.24 11.35L44.24 11.06L49.50 11.06L49.50 10.51C49.50 8.43 48.23 6.96 46.24 6.96C44.25 6.96 42.90 8.43 42.90 10.75C42.90 13.05 44.20 14.52 46.34 14.52ZM46.26 7.99C47.39 7.99 48.15 8.81 48.15 10.01L48.15 10.16L44.24 10.16L44.24 10.05C44.24 8.86 45.08 7.99 46.26 7.99ZM51.46 14.35L57.53 14.35L57.53 13.27L54.80 13.27L54.80 10.33C54.80 9.27 55.50 8.40 56.84 8.40L58.24 8.40L58.24 7.13L57.29 7.13C55.79 7.13 55.15 8.02 54.88 8.99L54.80 8.99L54.80 7.13L51.46 7.13L51.46 8.20L53.49 8.20L53.49 13.27L51.46 13.27Z"></path></g><!----><g data-v-423bf9ae="" id="5485d159-368f-4860-8e5e-5bbfb3a0806e" transform="matrix(2.8125,0,0,2.8125,0,0)" stroke="none" fill="#f1416c"><path d="M16 32c8.837 0 16-7.163 16-16S24.837 0 16 0 0 7.163 0 16s7.163 16 16 16zM14.817 6.421h2v8.886h8.887v2H14.817V6.421zm-5.959.437h2v14.283h14.283v2H8.858V6.858z"></path></g><!----></svg>